# xmcd
#
# Track frame offsets: 
#        150
#        29327
#        39758
#        58773
#        73616
#        89498
#        103718
#        118174
#        143826
#        157800
#        176451
#        192973
#        208174
#        224258
#        241500
#        259903
#        277360
#        292036
#        302890
#        315183
#
# Disc length: 4495 seconds
#
# Revision: 0
# Processed by: cddbd v1.5.2PL0 Copyright (c) Steve Scherf et al.
# Submitted via: ExactAudioCopyFreeDBPlugin 1.0
#
DISCID=29118d14
DTITLE=Alabama - M Y   H O M E ' S   I N   A L A B A M A     1 9 8 0  
DTITLE=      F E E L S   S O   R I G H T       1 9 8 1 
DYEAR=1900
DGENRE=Country Pop
TTITLE0=My Home's In Alabama  1980
TTITLE1=Hanging Up My Travelin' Shoes  1980
TTITLE2=Wyh Lady Why  1980
TTITLE3=Getting Over You  1980
TTITLE4=Wanna Come Over  1980
TTITLE5=Tennessee River  1980
TTITLE6=Some Other Place, Some Other Time  1980
TTITLE7=Can't Forget About You  1980
TTITLE8=Get It While It's Hot  1980
TTITLE9=Keep On Dreamin'  1980
TTITLE10=Feels So Right  1981
TTITLE11=Love In The First Degree  1981
TTITLE12=Burn Georga Burn  1981
TTITLE13=Ride The Train  1981
TTITLE14=Fantasy  1981
TTITLE15=Hollywood  1981
TTITLE16=Old Flame  1981
TTITLE17=Woman Back Home  1981
TTITLE18=See The Embers, Feel The Flame  1981
TTITLE19=I'm Stoned  1981
EXTD=
EXTT0=
EXTT1=
EXTT2=
EXTT3=
EXTT4=
EXTT5=
EXTT6=
EXTT7=
EXTT8=
EXTT9=
EXTT10=
EXTT11=
EXTT12=
EXTT13=
EXTT14=
EXTT15=
EXTT16=
EXTT17=
EXTT18=
EXTT19=
PLAYORDER=
